<?xml version="1.0" encoding="iso-8859-1"?>
<!-- Generator: Adobe Illustrator 18.0.0, SVG Export Plug-In . SVG Version: 6.00 Build 0)  -->
<!DOCTYPE svg PUBLIC "-//W3C//DTD SVG 1.1//EN" "http://www.w3.org/Graphics/SVG/1.1/DTD/svg11.dtd">
<svg version="1.1" id="Capa_1" xmlns="http://www.w3.org/2000/svg" xmlns:xlink="http://www.w3.org/1999/xlink" x="0px" y="0px"
	 viewBox="0 0 446.001 446.001" style="enable-background:new 0 0 446.001 446.001;" xml:space="preserve">
<g>
	<path d="M42.14,87.53l39.443,11.465c0.915,0.266,1.854,0.397,2.791,0.397c1.669,0,3.327-0.418,4.816-1.236
		c2.324-1.277,4.046-3.426,4.786-5.973l11.465-39.444c2.276-7.833,1.367-16.083-2.562-23.232S92.474,17.169,84.641,14.892
		c-7.832-2.276-16.083-1.366-23.231,2.562c-4.521,2.485-8.26,5.989-10.973,10.212c-13.144,0.104-25.246,8.763-29.099,22.017
		c-2.276,7.833-1.367,16.083,2.563,23.232C27.829,80.063,34.307,85.253,42.14,87.53z M40.543,55.264
		c1.338-4.601,5.557-7.598,10.124-7.598c0.972,0,1.959,0.136,2.938,0.42c5.302,1.541,10.852-1.507,12.394-6.812
		c0.786-2.703,2.577-4.938,5.044-6.294c2.467-1.355,5.313-1.669,8.017-0.884c2.703,0.786,4.938,2.577,6.294,5.044
		s1.67,5.314,0.884,8.017l-8.674,29.841l-29.841-8.674c-2.703-0.786-4.938-2.577-6.295-5.044
		C40.071,60.814,39.758,57.967,40.543,55.264z" fill="#bf1f1f"/>
	<path d="M443.809,175.542c-0.665-0.832-1.444-1.535-2.301-2.1l-58.81-40.687c-0.919-5.719-2.34-11.345-4.242-16.854l8.274-4.251
		c10.951-5.626,19.056-15.181,22.82-26.904c3.766-11.723,2.74-24.209-2.887-35.161c-10.192-19.835-32.875-29.151-53.551-23.292
		c-5.608-7.062-13.173-12.317-21.953-15.138c-11.723-3.766-24.21-2.74-35.161,2.887s-19.056,15.182-22.821,26.904
		c-0.734,2.284-1.28,4.598-1.651,6.924c-3.174,0.341-6.315,0.823-9.408,1.456l-33.422-23.133c-3.423-2.37-7.957-2.37-11.382-0.001
		L4.618,173.36C1.785,175.169,0,178.324,0,181.789v245.289c0,5.523,4.478,10,10,10h426c5.522,0,10-4.477,10-10V181.924
		C446.03,179.674,445.305,177.412,443.809,175.542z M169.688,304.433L20,407.997V200.87L169.688,304.433z M190.386,314.433h65.236
		l148.36,102.645H42.027L190.386,314.433z M276.319,304.433L426,200.875v207.117L276.319,304.433z M380.55,174.967
		c1.507-5.685,2.51-11.472,3.022-17.287l34.856,24.114l-48.631,33.646L380.55,174.967z M292.219,47.061
		c2.132-6.636,6.72-12.045,12.92-15.23c3.744-1.924,7.805-2.897,11.896-2.897c2.684,0,5.381,0.419,8.009,1.263
		c6.637,2.131,12.045,6.719,15.23,12.919c1.212,2.359,3.312,4.14,5.836,4.951c2.525,0.811,5.27,0.586,7.629-0.626
		c12.8-6.575,28.562-1.513,35.136,11.285c3.186,6.199,3.766,13.269,1.634,19.905c-2.131,6.636-6.719,12.045-12.919,15.23
		l-55.315,28.42l-28.42-55.315C290.668,60.766,290.088,53.697,292.219,47.061z M309.055,140.316c1.212,2.359,3.312,4.14,5.837,4.951
		c0.997,0.32,2.028,0.479,3.058,0.479c1.575,0,3.143-0.372,4.57-1.105l37.923-19.485c2.344,7.662,3.531,15.586,3.531,23.668
		c0,7.051-0.927,14.122-2.755,21.012l-16.776,63.146l-88.821,61.452h-65.235l-100.96-69.851c-0.468-3.516-0.712-7.072-0.712-10.619
		c0-7.051,0.927-14.122,2.755-21.014c5.592-21.064,19.053-38.688,37.902-49.627c18.851-10.939,40.83-13.881,61.894-8.284
		c5.34,1.419,10.814-1.758,12.232-7.096c8.633-32.476,36.474-56.2,69.28-60.089c0.822,2.82,1.916,5.582,3.288,8.252L309.055,140.316
		z M223.003,46.575l15.503,10.731c-23.402,11.271-42.164,31.309-51.444,56.377c-23.302-3.935-47.032,0.331-67.729,12.342
		c-23.471,13.621-40.231,35.565-47.195,61.796c-1.956,7.376-3.077,14.923-3.352,22.483l-41.207-28.51L223.003,46.575z" fill="#bf1f1f"/>
</g>
<g>
</g>
<g>
</g>
<g>
</g>
<g>
</g>
<g>
</g>
<g>
</g>
<g>
</g>
<g>
</g>
<g>
</g>
<g>
</g>
<g>
</g>
<g>
</g>
<g>
</g>
<g>
</g>
<g>
</g>
</svg>
