<svg width="100" height="100" xmlns="http://www.w3.org/2000/svg">

 <!-- generated by https://loading.io/ -->
 <g>
  <title>background</title>
  <rect fill="none" id="canvas_background" height="602" width="802" y="-1" x="-1"/>
 </g>
 <g>
  <title>Layer 1</title>
  <g stroke="null" id="svg_1" transform="translate(-6.716403484344482,2.9850680828094482) scale(0.800000011920929) " class="ldl-scale">
   <g stroke="null" id="svg_2">
    <rect stroke="rgb(191, 31, 31)" id="svg_3" x="14.29962" y="18.50726" fill-opacity="0" stroke-width="6" stroke-linecap="round" stroke-linejoin="round" stroke-miterlimit="10" width="113.09841" height="80.78458"/>
    <polygon stroke="rgb(191, 31, 31)" id="svg_4" fill-opacity="0" stroke-width="6" stroke-linecap="round" stroke-linejoin="round" stroke-miterlimit="10" points="14.299624681472778,99.29183959960938 70.69347977638245,41.499794006347656 127.39803910255432,99.29183959960938 "/>
    <polygon stroke="rgb(191, 31, 31)" id="svg_5" fill-opacity="0" stroke-width="6" stroke-linecap="round" stroke-linejoin="round" stroke-miterlimit="10" points="14.299624681472778,18.507259368896484 70.69347977638245,68.99762725830078 127.39803910255432,18.507259368896484 "/>
   </g>
   <path stroke="rgb(191, 31, 31)" id="svg_6" fill="rgb(191, 31, 31)" stroke-width="6" stroke-linecap="round" stroke-linejoin="round" stroke-miterlimit="10" d="m90.2682,52.06393c0,14.29266 -19.41937,24.39073 -19.41937,24.39073s-19.41937,-10.09807 -19.41937,-24.39073s19.41937,-14.1373 19.41937,-0.46606c0,-13.51588 19.41937,-13.82659 19.41937,0.46606z"/>
   <metadata stroke="null" transform="translate(1.8656675815582275,0) translate(17.723840713500977,12.126838684082031) translate(6.296626091003418,0) translate(0,-16.13644027709961) translate(0,16.507225036621094) translate(0,-17.99036407470703) translate(-25.18651008605957,0) translate(13.600000381469727,24) scale(1.4612914323806763,1.3874847888946533) translate(-13.600000381469727,-24) translate(9.306836128234863,17.297487258911133) scale(0.684326171875,1.4344221353530884) translate(-9.306836128234863,-17.297487258911133) translate(13.600000381469727,12.058854103088379) scale(1.5535496473312378) translate(-13.600000381469727,-12.058854103088379) ">love letterheart,envelope,mail,romance,crush,confession,courtshipbyd3f9it</metadata>
  </g>
 </g>
</svg>